<mxfile host="app.diagrams.net" agent="Mozilla/5.0 (Windows NT 10.0; Win64; x64) AppleWebKit/537.36 (KHTML, like Gecko) Chrome/129.0.0.0 Safari/537.36" version="24.7.16">
  <diagram name="Page-1" id="9XJh0YDBjcYL8MsZuYUi">
    <mxGraphModel dx="2168" dy="541" grid="1" gridSize="10" guides="1" tooltips="1" connect="1" arrows="1" fold="1" page="1" pageScale="1" pageWidth="850" pageHeight="1100" math="0" shadow="0">
      <root>
        <mxCell id="0" />
        <mxCell id="1" parent="0" />
        <mxCell id="X-ILSmCUml3sYCjZuSns-7" style="edgeStyle=orthogonalEdgeStyle;rounded=0;orthogonalLoop=1;jettySize=auto;html=1;exitX=0.5;exitY=1;exitDx=0;exitDy=0;" parent="1" source="X-ILSmCUml3sYCjZuSns-2" target="X-ILSmCUml3sYCjZuSns-3" edge="1">
          <mxGeometry relative="1" as="geometry" />
        </mxCell>
        <mxCell id="X-ILSmCUml3sYCjZuSns-8" style="edgeStyle=orthogonalEdgeStyle;rounded=0;orthogonalLoop=1;jettySize=auto;html=1;exitX=0.5;exitY=1;exitDx=0;exitDy=0;entryX=0.5;entryY=0;entryDx=0;entryDy=0;" parent="1" source="X-ILSmCUml3sYCjZuSns-2" target="X-ILSmCUml3sYCjZuSns-4" edge="1">
          <mxGeometry relative="1" as="geometry" />
        </mxCell>
        <mxCell id="X-ILSmCUml3sYCjZuSns-2" value="Person" style="rounded=0;whiteSpace=wrap;html=1;" parent="1" vertex="1">
          <mxGeometry x="690" y="210" width="120" height="60" as="geometry" />
        </mxCell>
        <mxCell id="HmzVWOUcySedFbnDmjV6-5" style="edgeStyle=orthogonalEdgeStyle;rounded=0;orthogonalLoop=1;jettySize=auto;html=1;exitX=0.75;exitY=1;exitDx=0;exitDy=0;entryX=0.75;entryY=1;entryDx=0;entryDy=0;" parent="1" source="X-ILSmCUml3sYCjZuSns-3" target="X-ILSmCUml3sYCjZuSns-11" edge="1">
          <mxGeometry relative="1" as="geometry">
            <Array as="points">
              <mxPoint x="670" y="490" />
              <mxPoint x="210" y="490" />
            </Array>
          </mxGeometry>
        </mxCell>
        <mxCell id="HmzVWOUcySedFbnDmjV6-8" value="Assosiasi" style="edgeLabel;html=1;align=center;verticalAlign=middle;resizable=0;points=[];" parent="HmzVWOUcySedFbnDmjV6-5" vertex="1" connectable="0">
          <mxGeometry x="0.0227" y="3" relative="1" as="geometry">
            <mxPoint x="97" as="offset" />
          </mxGeometry>
        </mxCell>
        <mxCell id="X-ILSmCUml3sYCjZuSns-3" value="Mahasiswa" style="rounded=0;whiteSpace=wrap;html=1;" parent="1" vertex="1">
          <mxGeometry x="580" y="360" width="120" height="60" as="geometry" />
        </mxCell>
        <mxCell id="HmzVWOUcySedFbnDmjV6-3" style="edgeStyle=orthogonalEdgeStyle;rounded=0;orthogonalLoop=1;jettySize=auto;html=1;exitX=0.5;exitY=1;exitDx=0;exitDy=0;entryX=0.5;entryY=1;entryDx=0;entryDy=0;" parent="1" source="X-ILSmCUml3sYCjZuSns-4" target="X-ILSmCUml3sYCjZuSns-11" edge="1">
          <mxGeometry relative="1" as="geometry">
            <Array as="points">
              <mxPoint x="860" y="550" />
              <mxPoint x="180" y="550" />
            </Array>
          </mxGeometry>
        </mxCell>
        <mxCell id="HmzVWOUcySedFbnDmjV6-4" value="Assosiasi" style="edgeLabel;html=1;align=center;verticalAlign=middle;resizable=0;points=[];" parent="HmzVWOUcySedFbnDmjV6-3" vertex="1" connectable="0">
          <mxGeometry x="-0.023" y="1" relative="1" as="geometry">
            <mxPoint x="199" as="offset" />
          </mxGeometry>
        </mxCell>
        <mxCell id="X-ILSmCUml3sYCjZuSns-4" value="Dosen" style="rounded=0;whiteSpace=wrap;html=1;" parent="1" vertex="1">
          <mxGeometry x="800" y="360" width="120" height="60" as="geometry" />
        </mxCell>
        <mxCell id="YgKeEkOK3f0y5j5owW9J-3" style="edgeStyle=orthogonalEdgeStyle;rounded=0;orthogonalLoop=1;jettySize=auto;html=1;exitX=1;exitY=0.5;exitDx=0;exitDy=0;entryX=0;entryY=0.5;entryDx=0;entryDy=0;" edge="1" parent="1" source="X-ILSmCUml3sYCjZuSns-11" target="X-ILSmCUml3sYCjZuSns-12">
          <mxGeometry relative="1" as="geometry" />
        </mxCell>
        <mxCell id="YgKeEkOK3f0y5j5owW9J-4" style="edgeStyle=orthogonalEdgeStyle;rounded=0;orthogonalLoop=1;jettySize=auto;html=1;exitX=0;exitY=0.5;exitDx=0;exitDy=0;entryX=1;entryY=0.5;entryDx=0;entryDy=0;" edge="1" parent="1" source="X-ILSmCUml3sYCjZuSns-11" target="X-ILSmCUml3sYCjZuSns-17">
          <mxGeometry relative="1" as="geometry" />
        </mxCell>
        <mxCell id="X-ILSmCUml3sYCjZuSns-11" value="Ruangan" style="rounded=0;whiteSpace=wrap;html=1;" parent="1" vertex="1">
          <mxGeometry x="120" y="360" width="120" height="60" as="geometry" />
        </mxCell>
        <mxCell id="X-ILSmCUml3sYCjZuSns-12" value="Jadwal" style="rounded=0;whiteSpace=wrap;html=1;" parent="1" vertex="1">
          <mxGeometry x="330" y="360" width="120" height="60" as="geometry" />
        </mxCell>
        <mxCell id="X-ILSmCUml3sYCjZuSns-17" value="Mata Kuliah" style="rounded=0;whiteSpace=wrap;html=1;" parent="1" vertex="1">
          <mxGeometry x="-90" y="360" width="120" height="60" as="geometry" />
        </mxCell>
        <mxCell id="YgKeEkOK3f0y5j5owW9J-1" value="" style="triangle;whiteSpace=wrap;html=1;rotation=-90;" vertex="1" parent="1">
          <mxGeometry x="735" y="280" width="30" height="40" as="geometry" />
        </mxCell>
        <mxCell id="YgKeEkOK3f0y5j5owW9J-5" value="Assosiasi" style="edgeLabel;html=1;align=center;verticalAlign=middle;resizable=0;points=[];" vertex="1" connectable="0" parent="1">
          <mxGeometry x="270" y="390" as="geometry" />
        </mxCell>
        <mxCell id="YgKeEkOK3f0y5j5owW9J-6" value="Assosiasi" style="edgeLabel;html=1;align=center;verticalAlign=middle;resizable=0;points=[];" vertex="1" connectable="0" parent="1">
          <mxGeometry x="89" y="390" as="geometry" />
        </mxCell>
        <mxCell id="YgKeEkOK3f0y5j5owW9J-8" value="Person" style="swimlane;fontStyle=0;childLayout=stackLayout;horizontal=1;startSize=30;horizontalStack=0;resizeParent=1;resizeParentMax=0;resizeLast=0;collapsible=1;marginBottom=0;whiteSpace=wrap;html=1;" vertex="1" parent="1">
          <mxGeometry x="60" y="685" width="140" height="90" as="geometry" />
        </mxCell>
        <mxCell id="YgKeEkOK3f0y5j5owW9J-9" value="Mahasiswa" style="text;strokeColor=none;fillColor=none;align=left;verticalAlign=middle;spacingLeft=4;spacingRight=4;overflow=hidden;points=[[0,0.5],[1,0.5]];portConstraint=eastwest;rotatable=0;whiteSpace=wrap;html=1;" vertex="1" parent="YgKeEkOK3f0y5j5owW9J-8">
          <mxGeometry y="30" width="140" height="30" as="geometry" />
        </mxCell>
        <mxCell id="YgKeEkOK3f0y5j5owW9J-10" value="Dosen" style="text;strokeColor=none;fillColor=none;align=left;verticalAlign=middle;spacingLeft=4;spacingRight=4;overflow=hidden;points=[[0,0.5],[1,0.5]];portConstraint=eastwest;rotatable=0;whiteSpace=wrap;html=1;" vertex="1" parent="YgKeEkOK3f0y5j5owW9J-8">
          <mxGeometry y="60" width="140" height="30" as="geometry" />
        </mxCell>
        <mxCell id="YgKeEkOK3f0y5j5owW9J-15" value="Mata Kuliah" style="swimlane;fontStyle=0;childLayout=stackLayout;horizontal=1;startSize=30;horizontalStack=0;resizeParent=1;resizeParentMax=0;resizeLast=0;collapsible=1;marginBottom=0;whiteSpace=wrap;html=1;" vertex="1" parent="1">
          <mxGeometry x="340" y="590" width="140" height="60" as="geometry" />
        </mxCell>
        <mxCell id="YgKeEkOK3f0y5j5owW9J-34" style="edgeStyle=orthogonalEdgeStyle;rounded=0;orthogonalLoop=1;jettySize=auto;html=1;exitX=0.5;exitY=0;exitDx=0;exitDy=0;entryX=0.5;entryY=1;entryDx=0;entryDy=0;" edge="1" parent="1" source="YgKeEkOK3f0y5j5owW9J-19" target="YgKeEkOK3f0y5j5owW9J-15">
          <mxGeometry relative="1" as="geometry" />
        </mxCell>
        <mxCell id="YgKeEkOK3f0y5j5owW9J-35" style="edgeStyle=orthogonalEdgeStyle;rounded=0;orthogonalLoop=1;jettySize=auto;html=1;exitX=0.5;exitY=1;exitDx=0;exitDy=0;entryX=0.5;entryY=0;entryDx=0;entryDy=0;" edge="1" parent="1" source="YgKeEkOK3f0y5j5owW9J-19" target="YgKeEkOK3f0y5j5owW9J-23">
          <mxGeometry relative="1" as="geometry" />
        </mxCell>
        <mxCell id="YgKeEkOK3f0y5j5owW9J-19" value="Ruangan" style="swimlane;fontStyle=0;childLayout=stackLayout;horizontal=1;startSize=30;horizontalStack=0;resizeParent=1;resizeParentMax=0;resizeLast=0;collapsible=1;marginBottom=0;whiteSpace=wrap;html=1;" vertex="1" parent="1">
          <mxGeometry x="340" y="700" width="140" height="60" as="geometry" />
        </mxCell>
        <mxCell id="YgKeEkOK3f0y5j5owW9J-23" value="Jadwal" style="swimlane;fontStyle=0;childLayout=stackLayout;horizontal=1;startSize=30;horizontalStack=0;resizeParent=1;resizeParentMax=0;resizeLast=0;collapsible=1;marginBottom=0;whiteSpace=wrap;html=1;" vertex="1" parent="1">
          <mxGeometry x="340" y="800" width="140" height="60" as="geometry" />
        </mxCell>
        <mxCell id="YgKeEkOK3f0y5j5owW9J-29" style="edgeStyle=orthogonalEdgeStyle;rounded=0;orthogonalLoop=1;jettySize=auto;html=1;exitX=1;exitY=0.5;exitDx=0;exitDy=0;entryX=0;entryY=0.5;entryDx=0;entryDy=0;" edge="1" parent="1" source="YgKeEkOK3f0y5j5owW9J-9" target="YgKeEkOK3f0y5j5owW9J-19">
          <mxGeometry relative="1" as="geometry" />
        </mxCell>
      </root>
    </mxGraphModel>
  </diagram>
</mxfile>
